<?xml version="1.0" encoding="iso-8859-1"?>
<!-- Generator: Adobe Illustrator 19.0.0, SVG Export Plug-In . SVG Version: 6.00 Build 0)  -->
<svg version="1.1" xmlns="http://www.w3.org/2000/svg" xmlns:xlink="http://www.w3.org/1999/xlink" x="0px" y="0px"
	 viewBox="0 0 502.624 502.624" style="enable-background:new 0 0 502.624 502.624;" xml:space="preserve">

<path style="fill:#FFCB57;" d="M163.312,417l-12.688-12.688c-7.24-7.248-11.312-17.072-11.312-27.312l0,0
    c0-10.24,4.072-20.064,11.312-27.312L163.312,337L176,349.688c7.24,7.248,11.312,17.072,11.312,27.312l0,0
    c0,10.24-4.072,20.064-11.312,27.312L163.312,417z"/>
<path style="fill:#FFCB57;" d="M43.312,313L26.76,295.616C16.84,285.2,11.312,271.376,11.312,257l0,0
    c0-14.376,5.528-28.208,15.448-38.616L43.312,201l16.552,17.384c9.92,10.408,15.448,24.24,15.448,38.616l0,0
    c0,14.376-5.528,28.2-15.448,38.616L43.312,313z"/>
<path style="fill:#FFCB57;" d="M91.312,449l-12.688,12.688C71.376,468.928,61.552,473,51.312,473l0,0
    c-10.24,0-20.064-4.072-27.312-11.312L11.312,449L24,436.312C31.248,429.072,41.072,425,51.312,425l0,0
    c10.24,0,20.064,4.072,27.312,11.312L91.312,449z"/>
<path style="fill:#FFCB57;" d="M339.312,417L352,404.312c7.24-7.248,11.312-17.072,11.312-27.312l0,0
    c0-10.24-4.072-20.064-11.312-27.312L339.312,337l-12.688,12.688c-7.24,7.248-11.312,17.072-11.312,27.312l0,0
    c0,10.24,4.072,20.064,11.312,27.312L339.312,417z"/>
<path style="fill:#FFCB57;" d="M459.312,313l16.552-17.384c9.92-10.416,15.448-24.24,15.448-38.616l0,0
    c0-14.376-5.528-28.208-15.448-38.616L459.312,201l-16.552,17.384c-9.92,10.408-15.448,24.24-15.448,38.616l0,0
    c0,14.376,5.528,28.2,15.448,38.616L459.312,313z"/>
<path style="fill:#FFCB57;" d="M411.312,449L424,461.688c7.248,7.24,17.072,11.312,27.312,11.312l0,0
    c10.24,0,20.064-4.072,27.312-11.312L491.312,449l-12.688-12.688c-7.248-7.24-17.072-11.312-27.312-11.312l0,0
    c-10.24,0-20.064,4.072-27.312,11.312L411.312,449z"/>
<polygon style="fill:#FFCB57;" points="251.312,394.168 265.416,422.752 296.96,427.336 274.136,449.584 279.528,481
    251.312,466.168 223.096,481 228.488,449.584 205.664,427.336 237.208,422.752 	"/>

<path style="fill:#3F3A34;" d="M163.312,428.312l-18.344-18.344c-8.68-8.68-13.656-20.696-13.656-32.968
    s4.976-24.288,13.656-32.968l18.344-18.344l18.344,18.344c8.68,8.68,13.656,20.696,13.656,32.968s-4.976,24.288-13.656,32.968
    L163.312,428.312z M163.312,348.312l-7.032,7.032c-5.696,5.704-8.968,13.592-8.968,21.656s3.272,15.952,8.968,21.656l7.032,7.032
    l7.032-7.032c5.696-5.704,8.968-13.592,8.968-21.656s-3.272-15.952-8.968-21.656L163.312,348.312z"/>
<path style="fill:#3F3A34;" d="M43.312,324.6l-22.344-23.472C9.584,289.176,3.312,273.496,3.312,257s6.272-32.176,17.656-44.136
    L43.312,189.4l22.344,23.472C77.04,224.824,83.312,240.504,83.312,257s-6.272,32.176-17.656,44.136L43.312,324.6z M43.312,212.6
    l-10.76,11.296c-8.536,8.968-13.24,20.728-13.24,33.104s4.704,24.136,13.24,33.104l10.76,11.296l10.76-11.296
    c8.536-8.968,13.24-20.728,13.24-33.104s-4.704-24.136-13.24-33.104L43.312,212.6z"/>
<path style="fill:#3F3A34;" d="M51.312,481c-12.448,0-24.16-4.848-32.968-13.656L0,449l18.344-18.344
    C27.152,421.848,38.864,417,51.312,417c12.456,0,24.16,4.848,32.968,13.656L102.632,449L84.28,467.344
    C75.472,476.152,63.768,481,51.312,481z M22.624,449l7.032,7.032c11.576,11.56,31.736,11.56,43.312,0L79.992,449l-7.032-7.032
    c-11.568-11.56-31.728-11.56-43.312,0L22.624,449z"/>
<path style="fill:#3F3A34;" d="M203.312,465c-43.408,0-84.216-16.904-114.912-47.6l-5.488-5.48
    c-30.696-30.704-47.6-71.504-47.6-114.92v-32h16v32c0,39.136,15.24,75.928,42.912,103.6l5.488,5.48
    c27.68,27.68,64.464,42.92,103.6,42.92V465z"/>
<path style="fill:#3F3A34;" d="M75.312,377c-13.232,0-24-10.768-24-24s10.768-24,24-24s24,10.768,24,24S88.544,377,75.312,377z
    M75.312,345c-4.408,0-8,3.584-8,8s3.592,8,8,8s8-3.584,8-8S79.72,345,75.312,345z"/>
<path style="fill:#3F3A34;" d="M147.312,489c-13.232,0-24-10.768-24-24s10.768-24,24-24s24,10.768,24,24S160.544,489,147.312,489z
    M147.312,457c-4.408,0-8,3.584-8,8s3.592,8,8,8s8-3.584,8-8S151.72,457,147.312,457z"/>
<path style="fill:#3F3A34;" d="M339.312,428.312l-18.344-18.344c-8.68-8.68-13.656-20.696-13.656-32.968
    s4.976-24.288,13.656-32.968l18.344-18.344l18.344,18.344c8.68,8.68,13.656,20.696,13.656,32.968s-4.976,24.288-13.656,32.968
    L339.312,428.312z M339.312,348.312l-7.032,7.032c-5.696,5.704-8.968,13.592-8.968,21.656s3.272,15.952,8.968,21.656l7.032,7.032
    l7.032-7.032c5.696-5.704,8.968-13.592,8.968-21.656s-3.272-15.952-8.968-21.656L339.312,348.312z"/>
<path style="fill:#3F3A34;" d="M459.312,324.6l-22.344-23.472c-11.384-11.952-17.656-27.632-17.656-44.128
    s6.272-32.176,17.656-44.136l22.344-23.464l22.344,23.472c11.384,11.952,17.656,27.632,17.656,44.128s-6.272,32.176-17.656,44.136
    L459.312,324.6z M459.312,212.6l-10.76,11.296c-8.536,8.968-13.24,20.728-13.24,33.104s4.704,24.136,13.24,33.104l10.76,11.296
    l10.76-11.296c8.536-8.968,13.24-20.728,13.24-33.104s-4.704-24.136-13.24-33.104L459.312,212.6z"/>
<path style="fill:#3F3A34;" d="M451.312,481c-12.456,0-24.16-4.848-32.968-13.656L399.992,449l18.352-18.344
    c8.808-8.808,20.512-13.656,32.968-13.656c12.448,0,24.16,4.848,32.968,13.656L502.624,449l-18.344,18.344
    C475.472,476.152,463.76,481,451.312,481z M422.632,449l7.032,7.032c11.568,11.56,31.728,11.56,43.312,0L480,449l-7.032-7.032
    c-11.576-11.56-31.736-11.56-43.312,0L422.632,449z"/>
<path style="fill:#3F3A34;" d="M299.312,465v-16c39.136,0,75.92-15.24,103.6-42.912l5.496-5.496
    c27.664-27.664,42.904-64.456,42.904-103.592v-32h16v32c0,43.416-16.904,84.216-47.6,114.912l-5.496,5.496
    C383.528,448.096,342.72,465,299.312,465z"/>
<path style="fill:#3F3A34;" d="M427.312,377c-13.232,0-24-10.768-24-24s10.768-24,24-24s24,10.768,24,24S440.544,377,427.312,377z
    M427.312,345c-4.408,0-8,3.584-8,8s3.592,8,8,8s8-3.584,8-8S431.72,345,427.312,345z"/>
<path style="fill:#3F3A34;" d="M355.312,489c-13.232,0-24-10.768-24-24s10.768-24,24-24s24,10.768,24,24S368.544,489,355.312,489z
    M355.312,457c-4.408,0-8,3.584-8,8s3.592,8,8,8s8-3.584,8-8S359.72,457,355.312,457z"/>
<path style="fill:#3F3A34;" d="M290.152,495.624l-38.84-20.424l-38.84,20.424l7.416-43.248l-31.424-30.624l43.424-6.312
    l19.424-39.352l19.416,39.352l43.424,6.312l-31.424,30.624L290.152,495.624z M251.312,457.128l17.592,9.248l-3.36-19.576
    l14.232-13.872l-19.664-2.856l-8.8-17.832l-8.792,17.824l-19.664,2.856l14.232,13.872l-3.36,19.576L251.312,457.128z"/>
<path style="fill:#3F3A34;" d="M299.312,273h-96c-13.232,0-24-10.768-24-24v-24h144v24C323.312,262.232,312.544,273,299.312,273z
    M195.312,241v8c0,4.416,3.592,8,8,8h96c4.408,0,8-3.584,8-8v-8H195.312z"/>
<polygon style="fill:#3F3A34;" points="290.672,369 211.952,369 203.336,265.664 219.288,264.336 226.672,353 275.952,353
    283.336,264.336 299.288,265.664"/>

<path style="fill:#E56565;" d="M335.432,215.856l-8.232-13.72l13.336-8.008
	c14.048-8.424,22.776-23.832,22.776-40.216c0-5.048-0.808-10.04-2.408-14.84l-1.872-5.6l-27.72,18.472V137
	c0-21.552-6.376-42.936-18.08-61l-27.4,18.264l-2.52-12.464c-4.272-21.352-15.544-40.496-32-54.552
	c-16.456,14.056-27.728,33.2-32,54.552l-0.16,0.792l-2.36,11.68l-27.4-18.264c-11.704,18.056-18.08,39.44-18.08,60.992v14.944
	l-27.72-18.48l-1.872,5.608c-1.6,4.8-2.408,9.792-2.408,14.832c0,16.384,8.728,31.792,22.776,40.216l13.336,8.008l-8.232,13.72
	l-13.336-8.008c-18.84-11.296-30.544-31.96-30.544-53.928c0-6.768,1.088-13.464,3.224-19.888l8.496-25.496l21.104,14.072
	c2.584-22.496,11.152-44.24,24.776-62.4l4.536-6.056l20.872,13.912c7.08-23.152,21.04-43.096,40.192-57.456l4.8-3.6l4.8,3.6
	c19.28,14.456,33.296,34.568,40.224,57.44l20.832-13.888l4.544,6.048c13.624,18.16,22.192,39.896,24.776,62.4l21.104-14.072
	l8.496,25.488c2.136,6.44,3.224,13.136,3.224,19.896c0,21.968-11.704,42.632-30.544,53.936L335.432,215.856z"/>

<path style="fill:#E56565;" d="M335.432,215.856l-8.232-13.72l13.336-8.008
    c14.048-8.424,22.776-23.832,22.776-40.216c0-5.048-0.808-10.04-2.408-14.84l-1.872-5.6l-27.72,18.472V137
    c0-21.552-6.376-42.936-18.08-61l-27.4,18.264l-2.52-12.464c-4.272-21.352-15.544-40.496-32-54.552
    c-16.456,14.056-27.728,33.2-32,54.552l-0.16,0.792l-2.36,11.68l-27.4-18.264c-11.704,18.056-18.08,39.44-18.08,60.992v14.944
    l-27.72-18.48l-1.872,5.608c-1.6,4.8-2.408,9.792-2.408,14.832c0,16.384,8.728,31.792,22.776,40.216l13.336,8.008l-8.232,13.72
    l-13.336-8.008c-18.84-11.296-30.544-31.96-30.544-53.928c0-6.768,1.088-13.464,3.224-19.888l8.496-25.496l21.104,14.072
    c2.584-22.496,11.152-44.24,24.776-62.4l4.536-6.056l20.872,13.912c7.08-23.152,21.04-43.096,40.192-57.456l4.8-3.6l4.8,3.6
    c19.28,14.456,33.296,34.568,40.224,57.44l20.832-13.888l4.544,6.048c13.624,18.16,22.192,39.896,24.776,62.4l21.104-14.072
    l8.496,25.488c2.136,6.44,3.224,13.136,3.224,19.896c0,21.968-11.704,42.632-30.544,53.936L335.432,215.856z"/>

<path style="fill:#3F3A34;" d="M251.312,209c-26.472,0-48-21.528-48-48v-8c0-17.608,6.856-34.168,19.312-46.624l12.688-12.688
	L248,106.376c9.096,9.096,15.2,20.376,17.84,32.656l20.576-13.712l8.48,16.944c2.888,5.792,4.416,12.264,4.416,18.736
	C299.312,187.472,277.784,209,251.312,209z M235.312,116.312l-1.376,1.376c-9.432,9.44-14.624,21.976-14.624,35.312v8
	c0,17.648,14.352,32,32,32c17.648,0,32-14.352,32-32c0-4-0.944-8-2.736-11.576l-0.368-0.744l-28.896,19.264V153
	c0-13.336-5.192-25.872-14.624-35.312L235.312,116.312z"/>

</svg>
